<svg width="230" height="86" viewBox="0 0 230 86" fill="none" xmlns="http://www.w3.org/2000/svg">
<rect x="20" y="19" width="48" height="48" rx="24" fill="#D71718"/>
<path d="M57.1738 43.5247C57.0799 43.4661 56.9627 43.4133 56.863 43.3546C53.5204 41.5544 49.4097 42.8621 47.7149 46.1987C47.3221 46.9728 47.0758 47.8407 47.0171 48.7379C47.0054 48.8962 46.8881 48.9959 46.7356 48.9607C45.6918 48.7144 44.5483 48.7144 43.4459 49.0194C42.5545 49.2657 41.6925 49.6879 40.9595 50.3036C40.7894 50.4385 40.549 50.3564 40.5314 50.1042V50.0984C40.4962 49.5471 40.6897 49.207 41.1237 49.078C44.6421 47.9521 47.023 44.6741 47.023 40.9973C47.0288 37.7427 47.0347 31.0517 47.0347 30.694C47.0347 30.4419 46.7356 30.3363 46.5656 30.5181C45.5687 31.4974 44.5307 32.5119 43.657 33.3739C43.399 33.6319 42.9591 33.7375 42.5897 33.544C40.162 32.1952 37.0012 32.1659 34.5441 33.5205C34.333 33.6378 33.8053 33.7668 33.4417 33.3622C32.6676 32.6057 31.3892 31.3391 30.5683 30.5357C30.4099 30.3773 30.105 30.4536 30.0815 30.7116C30.0874 30.9813 30.0815 41.0676 30.0874 41.1908C30.105 42.6627 30.4686 43.6537 30.8673 44.5861C31.2602 45.4012 31.6883 46.0287 32.1516 46.5506C32.8729 47.4009 34.1161 48.4506 35.9398 49.078C36.5028 49.2891 36.5731 49.6762 36.5555 49.9459C36.5379 51.4471 36.5262 53.523 36.491 54.9069C36.4617 55.3409 36.7725 55.5872 37.095 55.5637C37.9688 55.511 38.9188 55.4875 40.4493 55.5637C40.9184 55.5872 41.3172 55.4934 41.4462 54.8014C41.8508 52.661 43.6277 51.5937 45.2227 51.6113C46.5363 51.6289 47.6563 52.2974 48.2838 53.2064C48.3014 53.2357 48.319 53.2591 48.3424 53.2826C48.6591 53.7224 48.8995 54.3147 48.9523 54.8366C48.9992 55.3292 49.3628 55.5696 49.7615 55.5755C49.9492 55.5755 51.1689 55.5637 51.3566 55.5579C51.6087 55.552 51.8961 55.3702 51.8843 54.9597C51.8667 54.5141 51.7319 53.9804 51.7084 53.869C51.4797 52.9425 51.0575 52.1215 50.5121 51.4119C50.5063 51.4061 50.5004 51.4002 50.5004 51.3943C49.351 49.5706 49.7557 47.7762 50.8229 46.621C52.0896 45.2546 54.1713 45.02 55.6608 46.0111C57.3321 46.9552 58.8978 44.7034 57.1738 43.5247ZM33.1719 40.9797C33.1661 38.1708 35.4648 35.6375 38.6138 35.6375C41.4169 35.6316 43.9385 37.9421 43.9678 40.9562C43.9971 44.1815 41.3582 46.4509 38.5786 46.4274C35.6055 46.445 33.1778 44.0231 33.1719 40.9797Z" fill="white"/>
<path d="M89.424 52L85.272 45.712H85.152H83.112V52H79.968V35.344H85.152C86.272 35.344 87.24 35.44 88.056 35.632C88.872 35.808 89.536 36.104 90.048 36.52C90.56 36.92 90.936 37.448 91.176 38.104C91.432 38.76 91.56 39.56 91.56 40.504C91.56 41.912 91.296 43 90.768 43.768C90.256 44.52 89.448 45.048 88.344 45.352L93.12 52H89.424ZM84.72 43.312C85.392 43.312 85.96 43.28 86.424 43.216C86.888 43.136 87.264 43 87.552 42.808C87.856 42.6 88.072 42.312 88.2 41.944C88.344 41.576 88.416 41.096 88.416 40.504C88.416 39.96 88.344 39.52 88.2 39.184C88.072 38.848 87.856 38.584 87.552 38.392C87.264 38.2 86.888 38.072 86.424 38.008C85.96 37.928 85.392 37.888 84.72 37.888H83.112V43.312H84.72ZM105.532 44.392C105.532 44.712 105.516 45.024 105.484 45.328C105.468 45.616 105.444 45.872 105.412 46.096L96.9159 46.648C96.9479 47.736 97.2519 48.536 97.8279 49.048C98.4039 49.56 99.3399 49.816 100.636 49.816C101.02 49.816 101.412 49.792 101.812 49.744C102.228 49.696 102.62 49.632 102.988 49.552C103.372 49.456 103.724 49.36 104.044 49.264C104.364 49.152 104.636 49.04 104.86 48.928V51.376C104.476 51.6 103.852 51.8 102.988 51.976C102.124 52.152 101.164 52.24 100.108 52.24C99.1159 52.24 98.2359 52.136 97.4679 51.928C96.6999 51.72 96.0519 51.36 95.5239 50.848C94.9959 50.336 94.5879 49.648 94.2999 48.784C94.0279 47.92 93.8919 46.832 93.8919 45.52C93.8919 44.208 94.0279 43.12 94.2999 42.256C94.5879 41.392 94.9959 40.704 95.5239 40.192C96.0519 39.68 96.6999 39.32 97.4679 39.112C98.2359 38.904 99.1159 38.8 100.108 38.8C101.228 38.8 102.14 38.952 102.844 39.256C103.548 39.544 104.1 39.944 104.5 40.456C104.9 40.968 105.172 41.56 105.316 42.232C105.46 42.904 105.532 43.624 105.532 44.392ZM102.748 44.08C102.748 43.68 102.716 43.304 102.652 42.952C102.604 42.584 102.484 42.264 102.292 41.992C102.1 41.72 101.828 41.504 101.476 41.344C101.14 41.184 100.684 41.104 100.108 41.104C99.4999 41.104 98.9959 41.176 98.5959 41.32C98.1959 41.464 97.8759 41.68 97.6359 41.968C97.3959 42.256 97.2199 42.616 97.1079 43.048C96.9959 43.464 96.9319 43.952 96.9159 44.512L102.748 44.08ZM119.98 33.76V52H117.316L117.028 50.104C116.772 50.728 116.324 51.24 115.684 51.64C115.06 52.04 114.164 52.24 112.996 52.24C111.94 52.24 111.068 52.08 110.38 51.76C109.708 51.44 109.172 50.992 108.772 50.416C108.388 49.824 108.116 49.112 107.956 48.28C107.812 47.448 107.74 46.528 107.74 45.52C107.74 44.608 107.812 43.744 107.956 42.928C108.116 42.112 108.388 41.4 108.772 40.792C109.172 40.184 109.708 39.704 110.38 39.352C111.068 38.984 111.94 38.8 112.996 38.8C113.604 38.8 114.124 38.848 114.556 38.944C115.004 39.04 115.388 39.184 115.708 39.376C116.028 39.552 116.292 39.768 116.5 40.024C116.708 40.28 116.876 40.568 117.004 40.888V33.76H119.98ZM113.812 49.912C114.468 49.912 115.012 49.816 115.444 49.624C115.876 49.416 116.212 49.128 116.452 48.76C116.708 48.392 116.884 47.936 116.98 47.392C117.076 46.848 117.124 46.224 117.124 45.52C117.124 44.864 117.076 44.264 116.98 43.72C116.884 43.176 116.708 42.712 116.452 42.328C116.196 41.944 115.852 41.648 115.42 41.44C115.004 41.216 114.468 41.104 113.812 41.104C113.14 41.104 112.612 41.224 112.228 41.464C111.844 41.704 111.548 42.032 111.34 42.448C111.132 42.848 110.996 43.32 110.932 43.864C110.884 44.392 110.86 44.944 110.86 45.52C110.86 46.144 110.892 46.728 110.956 47.272C111.02 47.8 111.156 48.264 111.364 48.664C111.572 49.048 111.868 49.352 112.252 49.576C112.636 49.8 113.156 49.912 113.812 49.912ZM134.348 38.104H129.812V52H126.668V38.104H122.156V35.344H134.348V38.104ZM140.785 52.24C139.793 52.24 138.913 52.136 138.145 51.928C137.377 51.72 136.729 51.36 136.201 50.848C135.673 50.336 135.265 49.648 134.977 48.784C134.705 47.92 134.569 46.832 134.569 45.52C134.569 44.208 134.705 43.12 134.977 42.256C135.265 41.392 135.673 40.704 136.201 40.192C136.729 39.68 137.377 39.32 138.145 39.112C138.913 38.904 139.793 38.8 140.785 38.8C141.777 38.8 142.657 38.904 143.425 39.112C144.209 39.32 144.865 39.68 145.393 40.192C145.921 40.704 146.321 41.392 146.593 42.256C146.881 43.12 147.025 44.208 147.025 45.52C147.025 46.832 146.881 47.92 146.593 48.784C146.321 49.648 145.921 50.336 145.393 50.848C144.865 51.36 144.209 51.72 143.425 51.928C142.657 52.136 141.777 52.24 140.785 52.24ZM140.785 49.912C141.393 49.912 141.897 49.84 142.297 49.696C142.697 49.552 143.017 49.312 143.257 48.976C143.497 48.64 143.665 48.192 143.761 47.632C143.873 47.072 143.929 46.368 143.929 45.52C143.929 44.688 143.873 43.992 143.761 43.432C143.665 42.856 143.489 42.4 143.233 42.064C142.993 41.712 142.673 41.464 142.273 41.32C141.873 41.176 141.377 41.104 140.785 41.104C140.193 41.104 139.697 41.176 139.297 41.32C138.897 41.464 138.577 41.712 138.337 42.064C138.097 42.4 137.921 42.856 137.809 43.432C137.713 43.992 137.665 44.688 137.665 45.52C137.665 46.368 137.713 47.072 137.809 47.632C137.921 48.192 138.097 48.64 138.337 48.976C138.593 49.312 138.921 49.552 139.321 49.696C139.721 49.84 140.209 49.912 140.785 49.912ZM164.429 38.8C165.917 38.8 167.005 39.176 167.693 39.928C168.381 40.664 168.725 41.784 168.725 43.288V52H165.725V43.96C165.725 43.048 165.573 42.376 165.269 41.944C164.965 41.512 164.405 41.296 163.589 41.296C162.869 41.296 162.269 41.44 161.789 41.728C161.325 42.016 160.997 42.544 160.805 43.312V52H157.805V43.96C157.805 43.048 157.653 42.376 157.349 41.944C157.061 41.512 156.517 41.296 155.717 41.296C154.997 41.296 154.413 41.432 153.965 41.704C153.517 41.976 153.189 42.488 152.981 43.24V52H149.981V39.04H152.981V40.576C153.349 39.936 153.837 39.48 154.445 39.208C155.053 38.936 155.789 38.8 156.653 38.8C157.661 38.8 158.461 38.968 159.053 39.304C159.645 39.624 160.085 40.096 160.373 40.72C160.741 40.016 161.285 39.52 162.005 39.232C162.725 38.944 163.533 38.8 164.429 38.8ZM174.234 52.144C173.834 52.144 173.506 52.12 173.25 52.072C173.01 52.024 172.818 51.936 172.674 51.808C172.53 51.664 172.434 51.472 172.386 51.232C172.338 50.976 172.314 50.64 172.314 50.224C172.314 49.808 172.338 49.472 172.386 49.216C172.434 48.96 172.53 48.768 172.674 48.64C172.818 48.496 173.01 48.408 173.25 48.376C173.506 48.328 173.834 48.304 174.234 48.304C174.618 48.304 174.93 48.328 175.17 48.376C175.426 48.408 175.626 48.496 175.77 48.64C175.914 48.768 176.01 48.96 176.058 49.216C176.122 49.472 176.154 49.808 176.154 50.224C176.154 50.64 176.122 50.976 176.058 51.232C176.01 51.472 175.914 51.664 175.77 51.808C175.626 51.936 175.426 52.024 175.17 52.072C174.93 52.12 174.618 52.144 174.234 52.144ZM189.865 47.584H182.905L181.321 52H178.081L184.321 35.344H188.545L194.737 52H191.401L189.865 47.584ZM188.929 44.944L186.553 38.152H186.265L183.841 44.944H188.929ZM196.683 35.344H199.827V52H196.683V35.344Z" fill="#D71718"/>
</svg>
