<svg width="32" height="32" viewBox="0 0 32 32" fill="none" xmlns="http://www.w3.org/2000/svg">
	<path fill-rule="evenodd" clip-rule="evenodd"
		d="M24.1402 14.666C24.1402 19.8982 19.8987 24.1397 14.6665 24.1397C9.43433 24.1397 5.19282 19.8982 5.19282 14.666C5.19282 9.43384 9.43433 5.19233 14.6665 5.19233C19.8987 5.19233 24.1402 9.43384 24.1402 14.666ZM21.7154 24.3785C19.7364 25.8173 17.3005 26.666 14.6665 26.666C8.03908 26.666 2.6665 21.2934 2.6665 14.666C2.6665 8.03859 8.03908 2.66602 14.6665 2.66602C21.2939 2.66602 26.6665 8.03859 26.6665 14.666C26.6665 17.5054 25.6803 20.1145 24.0318 22.1694L29.3466 27.4841C30.0714 28.2089 30.1524 29.303 29.5276 29.9279C28.9027 30.5527 27.8086 30.4717 27.0838 29.7469L21.7154 24.3785Z"
		fill="#b4b4b4" />
</svg>